<svg width="173" height="115" viewBox="0 0 173 115" fill="none" xmlns="http://www.w3.org/2000/svg">
<mask id="mask0_1_21025" style="mask-type:alpha" maskUnits="userSpaceOnUse" x="0" y="0" width="173" height="115">
<rect width="172.5" height="115" fill="#8BCF7B"/>
</mask>
<g mask="url(#mask0_1_21025)">
<path d="M61.065 59.9855C61.065 61.6492 60.9577 63.1518 60.743 64.4935H26.8525C27.1208 68.0355 28.4357 70.8798 30.797 73.0265C33.1583 75.1732 36.0563 76.2465 39.491 76.2465C44.4283 76.2465 47.9167 74.1803 49.956 70.048H59.8575C58.5158 74.1267 56.074 77.4808 52.532 80.1105C49.0437 82.6865 44.6967 83.9745 39.491 83.9745C35.2513 83.9745 31.441 83.0353 28.06 81.157C24.7327 79.225 22.103 76.5417 20.171 73.107C18.2927 69.6187 17.3535 65.5937 17.3535 61.032C17.3535 56.4703 18.2658 52.4722 20.0905 49.0375C21.9688 45.5492 24.5717 42.8658 27.899 40.9875C31.28 39.1092 35.144 38.17 39.491 38.17C43.677 38.17 47.4068 39.0823 50.6805 40.907C53.9542 42.7317 56.5033 45.3077 58.328 48.635C60.1527 51.9087 61.065 55.6922 61.065 59.9855ZM51.4855 57.0875C51.4318 53.7065 50.2243 50.9963 47.863 48.957C45.5017 46.9177 42.5768 45.898 39.0885 45.898C35.9222 45.898 33.212 46.9177 30.958 48.957C28.704 50.9427 27.3623 53.6528 26.933 57.0875H51.4855ZM92.7166 83.25L79.8366 60.871H72.8331V83.25H63.6561V27.3025H82.9761C87.2694 27.3025 90.8919 28.0538 93.8436 29.5565C96.8489 31.0592 99.0761 33.0717 100.525 35.594C102.028 38.1163 102.779 40.9338 102.779 44.0465C102.779 47.6958 101.706 51.0232 99.5591 54.0285C97.4661 56.9802 94.2193 58.9927 89.8186 60.066L103.665 83.25H92.7166ZM72.8331 53.5455H82.9761C86.4108 53.5455 88.9868 52.6868 90.7041 50.9695C92.4751 49.2522 93.3606 46.9445 93.3606 44.0465C93.3606 41.1485 92.5019 38.8945 90.7846 37.2845C89.0673 35.6208 86.4644 34.789 82.9761 34.789H72.8331V53.5455Z" fill="#212121"/>
<path d="M159.357 48.6208L157.745 54.1631H148.351L143.752 69.7678C142.913 72.6503 142.494 74.786 142.494 76.1748C142.494 77.1968 142.809 78.0484 143.438 78.7297C144.093 79.3848 144.944 79.7124 145.993 79.7124C148.22 79.7124 150.002 77.9829 151.338 74.5239H152.871C151.115 80.9702 147.958 84.1934 143.398 84.1934C141.485 84.1934 139.939 83.63 138.76 82.5032C137.607 81.3764 137.031 79.7779 137.031 77.7078C137.031 76.0831 137.411 73.8164 138.17 70.9077L139.153 67.1736C139.232 66.8067 139.35 66.3612 139.507 65.8372L143.202 54.1631H135.222L131.056 68.51C129.143 75.0873 127.623 79.3455 126.496 81.2847C125.396 83.2238 123.941 84.1934 122.133 84.1934C121.216 84.1934 120.378 83.9051 119.618 83.3286C118.858 82.7783 118.478 82.0315 118.478 81.0881C118.478 79.8303 119.434 78.0877 121.347 75.8604C126.09 70.305 129.615 63.0726 131.921 54.1631H129.051C124.544 54.1631 121.635 55.5519 120.325 58.3296H118.832C121.216 51.8571 125.409 48.6208 131.41 48.6208H159.357Z" fill="#D7FE62"/>
</g>
</svg>
